<svg width="90" height="90" viewBox="0 0 90 90" fill="none" xmlns="http://www.w3.org/2000/svg">
<path d="M67.7812 5.82751L83.43 22.14V84.1725H24.9722V84.375H83.6297V22.3453L67.7812 5.82751Z" fill="#909090"/>
<path d="M67.5872 5.625H24.7725V84.1725H83.43V22.1428L67.5843 5.625" fill="#F4F4F4"/>
<path d="M24.3422 9.84375H6.37036V29.0447H62.9016V9.84375H24.3422Z" fill="#7A7B7C"/>
<path d="M63.2025 28.7184H6.73596V9.50345H63.2025V28.7184Z" fill="#DD2025"/>
<path d="M25.4588 12.7519H21.7828V26.2519H24.6741V21.6984L25.3125 21.735C25.9329 21.7243 26.5474 21.6132 27.1322 21.4059C27.6449 21.2296 28.1166 20.9512 28.5188 20.5875C28.928 20.2411 29.2506 19.8038 29.461 19.3106C29.743 18.4908 29.8438 17.6195 29.7563 16.7569C29.7387 16.1407 29.6307 15.5304 29.4356 14.9456C29.2581 14.5235 28.9946 14.1429 28.662 13.8282C28.3293 13.5135 27.9348 13.2714 27.5035 13.1175C27.1306 12.9825 26.7453 12.8845 26.3531 12.825C26.0562 12.7792 25.7564 12.7547 25.456 12.7519H25.4588ZM24.9244 19.2038H24.6741V15.0413H25.2169C25.4565 15.024 25.6969 15.0608 25.9203 15.1489C26.1437 15.237 26.3445 15.3742 26.5078 15.5503C26.8462 16.0032 27.027 16.5544 27.0225 17.1197C27.0225 17.8116 27.0225 18.4387 26.3981 18.8803C25.9483 19.1277 25.4363 19.2391 24.9244 19.2009V19.2038ZM35.2491 12.7153C34.9369 12.7153 34.6332 12.7378 34.4194 12.7463L33.75 12.7631H31.5563V26.2631H34.1381C35.1248 26.2902 36.1072 26.1229 37.0294 25.7709C37.7717 25.4765 38.4289 25.0019 38.9419 24.39C39.4407 23.7725 39.7988 23.0536 39.991 22.2834C40.2119 21.4112 40.3197 20.5141 40.3116 19.6144C40.3661 18.5517 40.2839 17.4864 40.0669 16.4447C39.861 15.6779 39.4753 14.9712 38.9419 14.3831C38.5234 13.9083 38.0111 13.5252 37.4372 13.2581C36.9444 13.0301 36.426 12.862 35.8932 12.7575C35.6813 12.7225 35.4666 12.7065 35.2519 12.7097L35.2491 12.7153ZM34.74 23.7825H34.4588V15.165H34.4953C35.0752 15.0983 35.6618 15.2029 36.1828 15.4659C36.5644 15.7706 36.8753 16.1544 37.0941 16.5909C37.3302 17.0503 37.4663 17.5545 37.4935 18.0703C37.5188 18.6891 37.4935 19.1953 37.4935 19.6144C37.5049 20.0971 37.4739 20.5799 37.4007 21.0572C37.314 21.5472 37.1537 22.0213 36.9253 22.4634C36.6668 22.8745 36.3176 23.2209 35.9044 23.4759C35.5574 23.7004 35.1465 23.8051 34.7344 23.7741L34.74 23.7825ZM49.0219 12.7631H42.1875V26.2631H45.0788V20.9081H48.735V18.3994H45.0788V15.2719H49.0163V12.7631" fill="#464648"/>
<path d="M61.2591 56.9672C61.2591 56.9672 70.2253 55.3416 70.2253 58.4044C70.2253 61.4672 64.6706 60.2212 61.2591 56.9672ZM54.63 57.2006C53.2054 57.5154 51.8172 57.9763 50.4872 58.5759L51.6122 56.0447C52.7372 53.5134 53.9044 50.0625 53.9044 50.0625C55.2468 52.3219 56.8087 54.4434 58.5675 56.3962C57.2412 56.594 55.9267 56.8644 54.63 57.2062V57.2006ZM51.0806 38.9194C51.0806 36.2503 51.9441 35.5219 52.6162 35.5219C53.2884 35.5219 54.045 35.8453 54.0703 38.1628C53.8513 40.4931 53.3634 42.7903 52.6162 45.0084C51.5928 43.1461 51.0632 41.0528 51.0778 38.9278L51.0806 38.9194ZM38.0053 68.4956C35.2547 66.8503 43.7737 61.785 45.3178 61.6219C45.3094 61.6247 40.8853 70.2169 38.0053 68.4956ZM72.8437 58.7672C72.8156 58.4859 72.5625 55.3725 67.0219 55.5047C64.7124 55.4675 62.4041 55.6303 60.1228 55.9913C57.9129 53.7649 56.0099 51.2537 54.4641 48.5241C55.4379 45.7099 56.0273 42.7772 56.2162 39.8053C56.1347 36.4303 55.3275 34.4953 52.74 34.5234C50.1525 34.5516 49.7756 36.8156 50.1159 40.185C50.4493 42.4492 51.0781 44.6599 51.9862 46.7606C51.9862 46.7606 50.7909 50.4816 49.2103 54.1828C47.6297 57.8841 46.5497 59.8247 46.5497 59.8247C43.8011 60.7195 41.2136 62.0488 38.8856 63.7622C36.5681 65.9194 35.6259 67.5759 36.8465 69.2325C37.8984 70.6612 41.58 70.9847 44.8706 66.6731C46.619 64.4462 48.2163 62.1047 49.6519 59.6644C49.6519 59.6644 54.6694 58.2891 56.2303 57.9122C57.7912 57.5353 59.6784 57.2372 59.6784 57.2372C59.6784 57.2372 64.26 61.8469 68.6784 61.6837C73.0969 61.5206 72.8831 59.0428 72.855 58.7728" fill="#DD2025"/>
<path d="M67.3706 5.84155V22.3594H83.2134L67.3706 5.84155Z" fill="#909090"/>
<path d="M67.5872 5.625V22.1428H83.43L67.5872 5.625Z" fill="#F4F4F4"/>
<path d="M25.2422 12.5353H21.5663V26.0353H24.4688V21.4847L25.11 21.5213C25.7304 21.5106 26.3449 21.3995 26.9297 21.1922C27.4424 21.0158 27.9141 20.7374 28.3163 20.3738C28.7224 20.0264 29.0421 19.5892 29.25 19.0969C29.5321 18.277 29.6329 17.4057 29.5453 16.5431C29.5278 15.9269 29.4198 15.3167 29.2247 14.7319C29.0472 14.3097 28.7837 13.9292 28.451 13.6145C28.1184 13.2997 27.7238 13.0577 27.2925 12.9038C26.9179 12.7674 26.5307 12.6685 26.1366 12.6084C25.8397 12.5626 25.5398 12.5382 25.2394 12.5353H25.2422ZM24.7078 18.9872H24.4575V14.8247H25.0032C25.2427 14.8074 25.4831 14.8442 25.7066 14.9323C25.93 15.0204 26.1308 15.1576 26.2941 15.3338C26.6325 15.7866 26.8133 16.3378 26.8088 16.9031C26.8088 17.595 26.8088 18.2222 26.1844 18.6638C25.7346 18.9112 25.2226 19.0225 24.7107 18.9844L24.7078 18.9872ZM35.0325 12.4988C34.7203 12.4988 34.4166 12.5213 34.2028 12.5297L33.5419 12.5466H31.3482V26.0466H33.93C34.9167 26.0736 35.8991 25.9064 36.8213 25.5544C37.5635 25.26 38.2208 24.7854 38.7338 24.1734C39.2326 23.556 39.5906 22.8371 39.7828 22.0669C40.0038 21.1946 40.1116 20.2976 40.1035 19.3978C40.158 18.3351 40.0758 17.2699 39.8588 16.2281C39.6529 15.4613 39.2672 14.7546 38.7338 14.1666C38.3153 13.6917 37.8029 13.3087 37.2291 13.0416C36.7363 12.8135 36.2179 12.6454 35.685 12.5409C35.4731 12.5059 35.2585 12.4899 35.0438 12.4931L35.0325 12.4988ZM34.5319 23.5659H34.2507V14.9484H34.2872C34.867 14.8817 35.4537 14.9864 35.9747 15.2494C36.3563 15.5541 36.6672 15.9379 36.886 16.3744C37.1221 16.8338 37.2582 17.338 37.2853 17.8538C37.3107 18.4725 37.2853 18.9788 37.2853 19.3978C37.2968 19.8806 37.2657 20.3634 37.1925 20.8406C37.1058 21.3307 36.9456 21.8048 36.7172 22.2469C36.4587 22.6579 36.1095 23.0043 35.6963 23.2594C35.3493 23.4838 34.9384 23.5885 34.5263 23.5575L34.5319 23.5659ZM48.8053 12.5466H41.971V26.0466H44.8622V20.6916H48.5185V18.1828H44.8622V15.0553H48.7997V12.5466" fill="white"/>
</svg>
